# xmcd CD database file
#
# Track frame offsets:
#	150
#	21364
#	35724
#	50199
#	63112
#	77764
#	92925
#	109153
#	125687
#	138468
#	151056
#	162612
#	176056
#	196945
#	208475
#	223016
#
# Disc length: 3151 seconds
#
# Revision: 0
# Processed by: cddbd v1.5.2PL0 Copyright (c) Steve Scherf et al.
# Submitted via: CDex 1.70beta2
#
DISCID=f60c4d10
DTITLE=B.B. and The Blues Shacks - Dirty Thirty
DYEAR=2019
DGENRE=Blues
TTITLE0=Death Tax
TTITLE1=Rambling Kind
TTITLE2=Three Handed Woman
TTITLE3=I Run for You
TTITLE4=Moonshine Blues
TTITLE5=Not the One for me
TTITLE6=It Takes Time
TTITLE7=Do to me
TTITLE8=By the Way
TTITLE9=Crime Time
TTITLE10=Ain't Gonna Cry No More
TTITLE11=One More Drink
TTITLE12=Sweet Temptation Blues
TTITLE13=Oh Little Girl
TTITLE14=You Better Don't Wonna Know
TTITLE15=Hear My Baby Naggin'
EXTD=YEAR: 2019
EXTT0=
EXTT1=
EXTT2=
EXTT3=
EXTT4=
EXTT5=
EXTT6=
EXTT7=
EXTT8=
EXTT9=
EXTT10=
EXTT11=
EXTT12=
EXTT13=
EXTT14=
EXTT15=
PLAYORDER=
